<svg xmlns="http://www.w3.org/2000/svg" width="13.844" height="14" viewBox="0 0 13.844 14">
  <g id="删除" transform="translate(-132.267 -128)">
    <path id="路径_210" data-name="路径 210" d="M145.372,276.687H133.006a.743.743,0,0,1,0-1.486h12.367a.743.743,0,0,1,0,1.486Z" transform="translate(0 -144.519)" fill="#fff"/>
    <path id="路径_211" data-name="路径 211" d="M326.961,131.285h-1.508v-1.76h-3.945v1.76H320v-2.542a.765.765,0,0,1,.735-.743h5.453a.773.773,0,0,1,.773.743v2.542Z" transform="translate(-184.292)" fill="#fff"/>
    <path id="路径_212" data-name="路径 212" d="M241.965,315.9h-8.694a.74.74,0,0,1-.737-.743v-10.09h1.514v9.308h7.219v-9.308h1.514v10.051a.843.843,0,0,1-.815.782Z" transform="translate(-98.429 -173.9)" fill="#fff"/>
    <path id="路径_213" data-name="路径 213" d="M350.61,424.235a.743.743,0,0,1-.743-.743v-4.615a.743.743,0,1,1,1.486,0v4.615a.7.7,0,0,1-.743.743Zm2.229,0a.743.743,0,0,1-.743-.743v-4.615a.743.743,0,0,1,1.486,0v4.615a.719.719,0,0,1-.743.743Zm2.229,0a.743.743,0,0,1-.743-.743v-4.615a.743.743,0,1,1,1.486,0v4.615a.743.743,0,0,1-.743.743Z" transform="translate(-213.65 -284.868)" fill="#fff"/>
  </g>
</svg>
