<svg xmlns="http://www.w3.org/2000/svg" width="13.148" height="14" viewBox="0 0 13.148 14">
  <path id="编辑" d="M66.931,20.893H54.839a.528.528,0,1,0,0,1.056H66.931a.528.528,0,1,0,0-1.056M55.4,16.737l5.875-5.9,1.507,1.511L56.9,18.237H55.4v-1.5ZM62.88,9.224l1.515,1.515-.867.867-1.511-1.511.863-.87Zm-8.012,10.07h2.247a.528.528,0,0,0,.373-.155l8.026-8.026a.528.528,0,0,0,0-.747L63.254,8.1a.528.528,0,0,0-.747,0l-8.012,8.041a.54.54,0,0,0-.155.374v2.247a.528.528,0,0,0,.529.528Z" transform="translate(-54.311 -7.95)" fill="#fff"/>
</svg>
